<svg width="36" height="36" viewBox="0 0 36 36" fill="none" xmlns="http://www.w3.org/2000/svg">
<circle cx="18" cy="18" r="17.5" stroke="#CB3F3F"/>
<mask id="path-2-inside-1" fill="white">
<path d="M19.6667 15.0769V11.8462C19.6667 10.9545 20.4432 11.0385 21.4 11.0385H23.1333V7H19.6667C16.794 7 14.4667 9.16892 14.4667 11.8462V15.0769H11V19.1154H14.4667V28H19.6667V19.1154H22.2667L24 15.0769H19.6667Z"/>
</mask>
<path d="M19.6667 15.0769V11.8462C19.6667 10.9545 20.4432 11.0385 21.4 11.0385H23.1333V7H19.6667C16.794 7 14.4667 9.16892 14.4667 11.8462V15.0769H11V19.1154H14.4667V28H19.6667V19.1154H22.2667L24 15.0769H19.6667Z" fill="white"/>
<path d="M19.6667 15.0769H-1.66667V36.4103H19.6667V15.0769ZM23.1333 11.0385V32.3718H44.4667V11.0385H23.1333ZM23.1333 7H44.4667V-14.3333H23.1333V7ZM14.4667 15.0769V36.4103H35.8V15.0769H14.4667ZM11 15.0769V-6.25641H-10.3333V15.0769H11ZM11 19.1154H-10.3333V40.4487H11V19.1154ZM14.4667 19.1154H35.8V-2.21795H14.4667V19.1154ZM14.4667 28H-6.86667V49.3333H14.4667V28ZM19.6667 28V49.3333H41V28H19.6667ZM19.6667 19.1154V-2.21795H-1.66667V19.1154H19.6667ZM22.2667 19.1154V40.4487H36.3256L41.8706 27.5295L22.2667 19.1154ZM24 15.0769L43.6039 23.491L56.3717 -6.25641H24V15.0769ZM41 15.0769V11.8462H-1.66667V15.0769H41ZM41 11.8462C41 14.6353 40.3803 19.4422 36.8968 24.1075C33.3649 28.8376 28.8413 30.8114 26.085 31.6062C23.6146 32.3185 21.6456 32.3548 21.3485 32.3635C21.1642 32.3689 20.4418 32.3718 21.4 32.3718V-10.2949C21.8798 -10.2949 20.7015 -10.3025 20.1025 -10.285C19.3908 -10.2642 17.0482 -10.1931 14.2641 -9.39032C11.194 -8.5051 6.41654 -6.38509 2.70913 -1.41995C-0.949889 3.4804 -1.66667 8.61118 -1.66667 11.8462H41ZM21.4 32.3718H23.1333V-10.2949H21.4V32.3718ZM44.4667 11.0385V7H1.8V11.0385H44.4667ZM23.1333 -14.3333H19.6667V28.3333H23.1333V-14.3333ZM19.6667 -14.3333C6.45279 -14.3333 -6.86667 -4.0042 -6.86667 11.8462H35.8C35.8 22.3421 27.1351 28.3333 19.6667 28.3333V-14.3333ZM-6.86667 11.8462V15.0769H35.8V11.8462H-6.86667ZM14.4667 -6.25641H11V36.4103H14.4667V-6.25641ZM-10.3333 15.0769V19.1154H32.3333V15.0769H-10.3333ZM11 40.4487H14.4667V-2.21795H11V40.4487ZM-6.86667 19.1154V28H35.8V19.1154H-6.86667ZM14.4667 49.3333H19.6667V6.66667H14.4667V49.3333ZM41 28V19.1154H-1.66667V28H41ZM19.6667 40.4487H22.2667V-2.21795H19.6667V40.4487ZM41.8706 27.5295L43.6039 23.491L4.39608 6.6628L2.66275 10.7013L41.8706 27.5295ZM24 -6.25641H19.6667V36.4103H24V-6.25641Z" fill="#CB3F3F" mask="url(#path-2-inside-1)"/>
</svg>
