<svg width="24" height="25" viewBox="0 0 24 25" fill="none" xmlns="http://www.w3.org/2000/svg">
	<path d="M11.416 0.968999V11H10.226V3.629C10.226 3.531 10.2283 3.426 10.233 3.314C10.2423 3.202 10.2516 3.08767 10.261 2.971L6.81697 9.243C6.70964 9.453 6.5463 9.558 6.32697 9.558H6.13097C5.91164 9.558 5.7483 9.453 5.64097 9.243L2.12697 2.943C2.15497 3.19033 2.16897 3.419 2.16897 3.629V11H0.97897V0.968999H1.97997C2.1013 0.968999 2.19464 0.980666 2.25997 1.004C2.3253 1.02733 2.3883 1.09267 2.44897 1.2L5.91397 7.374C5.96997 7.486 6.02364 7.60267 6.07497 7.724C6.13097 7.84533 6.1823 7.969 6.22897 8.095C6.27564 7.969 6.32464 7.84533 6.37597 7.724C6.4273 7.598 6.4833 7.479 6.54397 7.367L9.94597 1.2C10.002 1.09267 10.0626 1.02733 10.128 1.004C10.198 0.980666 10.2936 0.968999 10.415 0.968999H11.416ZM23.3889 9.894L23.3819 11H17.2009V0.968999H23.3819V2.075H18.5589V5.407H22.4649V6.471H18.5589V9.894H23.3889ZM9.20167 13.969V24H8.52267C8.41534 24 8.32434 23.9813 8.24967 23.944C8.17967 23.9067 8.10967 23.8437 8.03967 23.755L2.23667 16.195C2.24601 16.3117 2.25301 16.426 2.25767 16.538C2.26234 16.65 2.26467 16.755 2.26467 16.853V24H1.07467V13.969H1.77467C1.83534 13.969 1.88667 13.9737 1.92867 13.983C1.97067 13.9877 2.00801 13.9993 2.04067 14.018C2.07334 14.032 2.10601 14.0553 2.13867 14.088C2.17134 14.116 2.20634 14.1533 2.24367 14.2L8.04667 21.753C8.03734 21.6317 8.02801 21.515 8.01867 21.403C8.01401 21.2863 8.01167 21.1767 8.01167 21.074V13.969H9.20167ZM18.8571 22.922C19.2724 22.922 19.6434 22.852 19.9701 22.712C20.2967 22.572 20.5721 22.376 20.7961 22.124C21.0247 21.872 21.1974 21.571 21.3141 21.221C21.4354 20.871 21.4961 20.486 21.4961 20.066V13.969H22.8471V20.066C22.8471 20.6447 22.7537 21.1813 22.5671 21.676C22.3851 22.1707 22.1214 22.6 21.7761 22.964C21.4354 23.3233 21.0177 23.6057 20.5231 23.811C20.0284 24.0163 19.4731 24.119 18.8571 24.119C18.2411 24.119 17.6857 24.0163 17.1911 23.811C16.6964 23.6057 16.2764 23.3233 15.9311 22.964C15.5857 22.6 15.3197 22.1707 15.1331 21.676C14.9511 21.1813 14.8601 20.6447 14.8601 20.066V13.969H16.2111V20.059C16.2111 20.479 16.2694 20.864 16.3861 21.214C16.5074 21.564 16.6801 21.865 16.9041 22.117C17.1327 22.369 17.4104 22.5673 17.7371 22.712C18.0684 22.852 18.4417 22.922 18.8571 22.922Z" fill="#2B2626"/>
</svg>
