<svg width="21" height="21" viewBox="0 0 21 21" fill="none" xmlns="http://www.w3.org/2000/svg">
	<path d="M0.13453 11.6327C-0.0448434 10.5534 -0.0448434 9.45196 0.13453 8.3727C1.23653 8.3987 2.22653 7.8707 2.61153 6.9417C2.99653 6.0117 2.66953 4.9377 1.87153 4.1787C2.50794 3.28798 3.28709 2.5085 4.17753 1.8717C4.93753 2.6697 6.01153 2.9967 6.94153 2.6117C7.87153 2.2267 8.39853 1.2357 8.37153 0.134696C9.45145 -0.0448988 10.5536 -0.0448988 11.6335 0.134696C11.6065 1.2367 12.1345 2.2267 13.0635 2.6117C13.9935 2.9967 15.0675 2.6697 15.8265 1.8717C16.7172 2.50811 17.4967 3.28726 18.1335 4.1777C17.3355 4.9377 17.0085 6.0117 17.3935 6.9417C17.7785 7.8717 18.7695 8.3987 19.8705 8.3717C20.0501 9.45161 20.0501 10.5538 19.8705 11.6337C18.7685 11.6067 17.7785 12.1347 17.3935 13.0637C17.0085 13.9937 17.3355 15.0677 18.1335 15.8267C17.4971 16.7174 16.718 17.4969 15.8275 18.1337C15.0675 17.3357 13.9935 17.0087 13.0635 17.3937C12.1335 17.7787 11.6065 18.7697 11.6335 19.8707C10.5536 20.0503 9.45145 20.0503 8.37153 19.8707C8.39853 18.7687 7.87053 17.7787 6.94153 17.3937C6.01153 17.0087 4.93753 17.3357 4.17853 18.1337C3.28782 17.4973 2.50833 16.7181 1.87153 15.8277C2.66953 15.0677 2.99653 13.9937 2.61153 13.0637C2.22653 12.1337 1.23553 11.6067 0.13453 11.6337V11.6327ZM10.0025 13.0027C10.7982 13.0027 11.5612 12.6866 12.1239 12.124C12.6865 11.5614 13.0025 10.7983 13.0025 10.0027C13.0025 9.20705 12.6865 8.44398 12.1239 7.88138C11.5612 7.31877 10.7982 7.0027 10.0025 7.0027C9.20688 7.0027 8.44382 7.31877 7.88121 7.88138C7.3186 8.44398 7.00253 9.20705 7.00253 10.0027C7.00253 10.7983 7.3186 11.5614 7.88121 12.124C8.44382 12.6866 9.20688 13.0027 10.0025 13.0027Z" fill="#9F9FAD"/>
</svg>
