<svg width="36" height="36" viewBox="0 0 36 36" fill="none" xmlns="http://www.w3.org/2000/svg">
<circle cx="18" cy="18" r="17.5" stroke="white"/>
<path d="M11.2063 17.8054C10.6341 19.0185 11.2837 19.5983 12.766 20.5889C14.0261 21.4285 15.7669 21.7356 16.8851 21.8584L15.948 22.8308C14.6197 24.1949 13.3596 25.5157 12.4785 26.4308C11.196 27.7566 13.2607 29.8838 14.5422 28.5862L18.0117 24.9771C19.3399 26.3553 20.6131 27.6761 21.4812 28.5912C22.7637 29.8939 24.8274 27.7848 23.5589 26.4358L20.0895 22.8359L19.1393 21.8634C20.2715 21.7406 21.9861 21.4154 23.2313 20.594L23.2304 20.5929C24.7126 19.5973 25.3623 19.0185 24.7985 17.8054C24.4578 17.1168 23.5393 16.541 22.3166 17.5366C22.3166 17.5366 20.6654 18.9007 18.0024 18.9007C15.3384 18.9007 13.6882 17.5366 13.6882 17.5366C12.4654 16.5359 11.5432 17.1168 11.2063 17.8054Z" fill="white"/>
<path d="M18.0005 17C21.3032 17 24 14.3138 24 11.0069C24 7.68621 21.3032 5 18.0005 5C14.6968 5 12 7.68621 12 11.0069C12 14.3138 14.6968 17 18.0005 17ZM18.0005 8.04299C19.6233 8.04299 20.9471 9.36831 20.9471 11.0069C20.9471 12.6317 19.6233 13.957 18.0005 13.957C16.3776 13.957 15.0539 12.6317 15.0539 11.0069C15.0529 9.36732 16.3767 8.04299 18.0005 8.04299Z" fill="white"/>
</svg>
