<svg width="40" height="38" viewBox="0 0 40 38" fill="none" xmlns="http://www.w3.org/2000/svg">
	<path d="M26.0307 7.98723C23.7725 3.37633 19.0488 0.327881 13.7503 0.327881C6.16866 0.327881 0.000602051 6.46094 0.000602051 13.9994C0.000602051 16.0481 0.440435 18.0118 1.30854 19.8426L0.0233359 26.2694C-0.140254 27.0875 0.581448 27.8106 1.39971 27.6487L7.90573 26.3624C8.78172 26.778 9.68795 27.094 10.6191 27.3117C8.53189 17.4259 16.0251 8.14645 26.0307 7.98723Z" fill="#9F9FAD"/>
	<path d="M38.6917 29.8423C38.9163 29.3688 39.1115 28.8863 39.2785 28.3959H39.2356C42.1612 19.8089 36.0087 10.7838 26.926 10.3443C26.9258 10.3439 26.9258 10.3434 26.9256 10.3429C19.1105 9.98278 12.6175 16.2401 12.6175 23.9992C12.6175 31.5313 18.7393 37.6596 26.269 37.6705C28.3113 37.6678 30.269 37.2281 32.0945 36.3622C39.2198 37.7709 38.6641 37.6707 38.8278 37.6707C39.5683 37.6707 40.1215 36.9921 39.9769 36.2691L38.6917 29.8423Z" fill="#9F9FAD"/>
	<path d="M23.7773 19.795C23.9359 19.655 24.1086 19.522 24.2953 19.396C24.4866 19.27 24.6919 19.1603 24.9113 19.067C25.1306 18.9737 25.3686 18.9013 25.6253 18.85C25.8819 18.794 26.1596 18.766 26.4583 18.766C26.8643 18.766 27.2329 18.822 27.5643 18.934C27.9003 19.046 28.1873 19.207 28.4253 19.417C28.6633 19.6223 28.8476 19.872 28.9783 20.166C29.1089 20.46 29.1743 20.789 29.1743 21.153C29.1743 21.5077 29.1229 21.8157 29.0203 22.077C28.9176 22.3337 28.7893 22.5577 28.6353 22.749C28.4813 22.9403 28.3109 23.106 28.1243 23.246C27.9423 23.386 27.7696 23.519 27.6063 23.645C27.4429 23.7663 27.3006 23.8877 27.1793 24.009C27.0626 24.1257 26.9926 24.2587 26.9693 24.408L26.8083 25.43H25.6253L25.5063 24.289C25.4783 24.0697 25.5086 23.8783 25.5973 23.715C25.6906 23.547 25.8119 23.3953 25.9613 23.26C26.1153 23.12 26.2856 22.987 26.4723 22.861C26.6589 22.7303 26.8339 22.5903 26.9973 22.441C27.1606 22.287 27.2959 22.1167 27.4033 21.93C27.5153 21.7387 27.5713 21.5123 27.5713 21.251C27.5713 21.083 27.5386 20.9337 27.4733 20.803C27.4126 20.6677 27.3263 20.5533 27.2143 20.46C27.1023 20.362 26.9669 20.2873 26.8083 20.236C26.6543 20.1847 26.4863 20.159 26.3043 20.159C26.0383 20.159 25.8119 20.1893 25.6253 20.25C25.4433 20.306 25.2869 20.3713 25.1563 20.446C25.0303 20.516 24.9229 20.5813 24.8343 20.642C24.7456 20.698 24.6663 20.726 24.5963 20.726C24.4283 20.726 24.3069 20.656 24.2323 20.516L23.7773 19.795ZM25.1003 28.048C25.1003 27.9033 25.1259 27.7657 25.1773 27.635C25.2333 27.5043 25.3079 27.3923 25.4013 27.299C25.4946 27.2057 25.6066 27.131 25.7373 27.075C25.8679 27.019 26.0079 26.991 26.1573 26.991C26.3066 26.991 26.4443 27.019 26.5703 27.075C26.7009 27.131 26.8129 27.2057 26.9063 27.299C27.0043 27.3923 27.0813 27.5043 27.1373 27.635C27.1933 27.7657 27.2213 27.9033 27.2213 28.048C27.2213 28.1973 27.1933 28.3373 27.1373 28.468C27.0813 28.594 27.0043 28.7037 26.9063 28.797C26.8129 28.8903 26.7009 28.9627 26.5703 29.014C26.4443 29.07 26.3066 29.098 26.1573 29.098C26.0079 29.098 25.8679 29.07 25.7373 29.014C25.6066 28.9627 25.4946 28.8903 25.4013 28.797C25.3079 28.7037 25.2333 28.594 25.1773 28.468C25.1259 28.3373 25.1003 28.1973 25.1003 28.048Z" fill="white"/>
</svg>
