<svg width="37" height="36" viewBox="0 0 37 36" fill="none" xmlns="http://www.w3.org/2000/svg">
	<g >
	<path d="M2.31248 2.44951C-0.595102 5.38801 -1.83284e-05 8.50951 -1.83284e-05 17.9925C-1.83284e-05 25.8675 -1.41219 33.762 5.97857 35.6205C8.28644 36.198 28.7351 36.198 31.0399 35.6175C34.1171 34.845 36.6207 32.4165 36.963 28.182C37.0108 27.591 37.0108 8.40451 36.9614 7.80151C36.5976 3.29101 33.744 0.691509 29.9839 0.165009C29.1221 0.0435086 28.9494 0.00750855 24.5279 8.55699e-06C8.84452 0.00750855 5.40661 -0.671992 2.31248 2.44951Z" fill="url(#paint0_linear)"/>
	<path d="M18.4969 4.70851C12.8991 4.70851 7.58347 4.22401 5.55309 9.29401C4.71443 11.388 4.83622 14.1075 4.83622 18.0015C4.83622 21.4185 4.72368 24.63 5.55309 26.7075C7.57884 31.7805 12.9377 31.2945 18.4938 31.2945C23.8542 31.2945 29.3811 31.8375 31.4361 26.7075C32.2763 24.5925 32.153 21.9135 32.153 18.0015C32.153 12.8085 32.4475 9.45601 29.859 6.93901C27.2382 4.38901 23.6939 4.70851 18.4908 4.70851H18.4969ZM17.2728 7.10401C28.9494 7.08601 30.4356 5.82301 29.6154 23.3685C29.324 29.574 24.4678 28.893 18.4985 28.893C7.6143 28.893 7.30134 28.59 7.30134 17.9955C7.30134 7.27801 8.16468 7.11001 17.2728 7.10101V7.10401ZM25.789 9.3105C24.8841 9.3105 24.1502 10.0245 24.1502 10.905C24.1502 11.7855 24.8841 12.4995 25.789 12.4995C26.694 12.4995 27.4278 11.7855 27.4278 10.905C27.4278 10.0245 26.694 9.3105 25.789 9.3105ZM18.4969 11.175C14.6227 11.175 11.4823 14.232 11.4823 18.0015C11.4823 21.771 14.6227 24.8265 18.4969 24.8265C22.3711 24.8265 25.51 21.771 25.51 18.0015C25.51 14.232 22.3711 11.175 18.4969 11.175ZM18.4969 13.5705C24.5171 13.5705 24.5248 22.4325 18.4969 22.4325C12.4783 22.4325 12.469 13.5705 18.4969 13.5705Z" fill="white"/>
	</g>
	<defs>
	<linearGradient id="paint0_linear" x1="2.38343" y1="33.7006" x2="35.961" y2="3.83238" gradientUnits="userSpaceOnUse">
	<stop stop-color="#FFDD55"/>
	<stop offset="0.5" stop-color="#FF543E"/>
	<stop offset="1" stop-color="#C837AB"/>
	</linearGradient>
	<clipPath>
	<rect width="37" height="36" fill="white"/>
	</clipPath>
	</defs>
</svg>
