<svg width="36" height="36" viewBox="0 0 36 36" fill="none" xmlns="http://www.w3.org/2000/svg">
<path d="M31.5 0H4.5C2.0175 0 0 2.0175 0 4.5V31.5C0 33.981 2.0175 36 4.5 36H31.5C33.981 36 36 33.981 36 31.5V4.5C36 2.0175 33.981 0 31.5 0Z" fill="#FFC107"/>
<path d="M9.26519 19.0067C8.52954 20.5231 9.3648 21.2479 11.2705 22.4862C12.8907 23.5356 15.1288 23.9194 16.5665 24.073L15.3617 25.2886C13.6539 26.9937 12.0338 28.6446 10.9009 29.7885C9.25199 31.4458 11.9066 34.1047 13.5543 32.4827L18.0151 27.9714C19.7228 29.6941 21.3597 31.3451 22.4758 32.489C24.1247 34.1173 26.7781 31.481 25.1472 29.7948L20.6865 25.2949L19.4648 24.0793C20.9205 23.9257 23.125 23.5193 24.726 22.4924L24.7248 22.4912C26.6305 21.2467 27.4658 20.5231 26.7409 19.0067C26.3029 18.146 25.122 17.4262 23.5499 18.6708C23.5499 18.6708 21.4269 20.3759 18.0031 20.3759C14.578 20.3759 12.4562 18.6708 12.4562 18.6708C10.8841 17.4199 9.69842 18.146 9.26519 19.0067Z" fill="white"/>
<path d="M18.0006 18C22.4042 18 26 14.6422 26 10.5086C26 6.35777 22.4042 3 18.0006 3C13.5958 3 10 6.35777 10 10.5086C10 14.6422 13.5958 18 18.0006 18ZM18.0006 6.80374C20.1644 6.80374 21.9294 8.46039 21.9294 10.5086C21.9294 12.5396 20.1644 14.1963 18.0006 14.1963C15.8368 14.1963 14.0719 12.5396 14.0719 10.5086C14.0706 8.45915 15.8356 6.80374 18.0006 6.80374Z" fill="white"/>
</svg>
