<svg width="24" height="24" viewBox="0 0 24 24" fill="none" xmlns="http://www.w3.org/2000/svg">
	<path d="M13.12 17.023L8.92099 14.733C8.37279 15.3191 7.66098 15.7267 6.87807 15.9029C6.09515 16.0791 5.27734 16.0157 4.53091 15.721C3.78448 15.4263 3.14395 14.914 2.69256 14.2504C2.24117 13.5869 1.99979 12.803 1.99979 12.0005C1.99979 11.198 2.24117 10.4141 2.69256 9.75055C3.14395 9.08704 3.78448 8.57465 4.53091 8.27996C5.27734 7.98527 6.09515 7.92191 6.87807 8.09811C7.66098 8.27431 8.37279 8.68193 8.92099 9.268L13.121 6.978C12.8825 6.03407 12.9965 5.03559 13.4416 4.1697C13.8867 3.30381 14.6323 2.62998 15.5387 2.2745C16.445 1.91902 17.4499 1.9063 18.365 2.23873C19.28 2.57116 20.0425 3.22591 20.5093 4.08026C20.9761 4.9346 21.1154 5.92989 20.9009 6.87954C20.6864 7.8292 20.1329 8.66803 19.3442 9.23881C18.5555 9.80958 17.5857 10.0731 16.6166 9.97999C15.6475 9.88687 14.7456 9.44351 14.08 8.733L9.87999 11.023C10.0412 11.6644 10.0412 12.3356 9.87999 12.977L14.079 15.267C14.7446 14.5565 15.6465 14.1131 16.6156 14.02C17.5847 13.9269 18.5545 14.1904 19.3432 14.7612C20.1319 15.332 20.6854 16.1708 20.8999 17.1205C21.1144 18.0701 20.9751 19.0654 20.5083 19.9197C20.0415 20.7741 19.279 21.4288 18.364 21.7613C17.4489 22.0937 16.444 22.081 15.5377 21.7255C14.6313 21.37 13.8857 20.6962 13.4406 19.8303C12.9955 18.9644 12.8815 17.9659 13.12 17.022V17.023ZM5.99999 14C6.53043 14 7.03913 13.7893 7.41421 13.4142C7.78928 13.0391 7.99999 12.5304 7.99999 12C7.99999 11.4696 7.78928 10.9609 7.41421 10.5858C7.03913 10.2107 6.53043 10 5.99999 10C5.46956 10 4.96085 10.2107 4.58578 10.5858C4.21071 10.9609 3.99999 11.4696 3.99999 12C3.99999 12.5304 4.21071 13.0391 4.58578 13.4142C4.96085 13.7893 5.46956 14 5.99999 14ZM17 8C17.5304 8 18.0391 7.78928 18.4142 7.41421C18.7893 7.03914 19 6.53043 19 6C19 5.46956 18.7893 4.96086 18.4142 4.58578C18.0391 4.21071 17.5304 4 17 4C16.4696 4 15.9609 4.21071 15.5858 4.58578C15.2107 4.96086 15 5.46956 15 6C15 6.53043 15.2107 7.03914 15.5858 7.41421C15.9609 7.78928 16.4696 8 17 8ZM17 20C17.5304 20 18.0391 19.7893 18.4142 19.4142C18.7893 19.0391 19 18.5304 19 18C19 17.4696 18.7893 16.9609 18.4142 16.5858C18.0391 16.2107 17.5304 16 17 16C16.4696 16 15.9609 16.2107 15.5858 16.5858C15.2107 16.9609 15 17.4696 15 18C15 18.5304 15.2107 19.0391 15.5858 19.4142C15.9609 19.7893 16.4696 20 17 20Z" fill="#9F9FAD"/>
</svg>
