<svg width="37" height="36" viewBox="0 0 37 36" fill="none" xmlns="http://www.w3.org/2000/svg">
	<path d="M31.5 0H4.5C2.0175 0 0 2.0175 0 4.5V31.5C0 33.981 2.0175 36 4.5 36H31.5C33.981 36 36 33.981 36 31.5V4.5C36 2.0175 33.981 0 31.5 0Z" fill="#8E24AA"/>
	<path d="M30.7344 20.2096C31.5806 13.1843 30.3279 8.74905 28.0682 6.74299L28.0694 6.74182C24.4223 3.31601 12.1053 2.80896 7.74206 6.89569C5.7826 8.89476 5.09241 11.8287 5.01678 15.4608C4.94114 19.0941 4.85132 25.9003 11.2816 27.7466H11.2875L11.2816 30.5663C11.2816 30.5663 11.2379 31.7086 11.9777 31.9383C12.8239 32.2087 13.2068 31.6783 15.8387 28.5777C20.2398 28.9542 23.6198 28.0917 24.0039 27.9658C24.8927 27.672 29.9213 27.0158 30.7344 20.2096ZM16.2725 26.5938C16.2725 26.5938 13.4869 30.0196 12.6206 30.909C12.337 31.1981 12.0262 31.1713 12.0309 30.5978C12.0309 30.2213 12.0522 25.9166 12.0522 25.9166C6.60042 24.3756 6.92188 18.5801 6.98097 15.5482C7.04006 12.5152 7.6026 10.0313 9.26188 8.35857C13.0898 4.81852 23.8881 5.60999 26.6394 8.16041C30.0029 11.1013 28.8057 19.41 28.8128 19.6932C28.1214 25.3746 24.0465 25.7347 23.2972 25.9807C22.9769 26.0856 20.0046 26.8398 16.2725 26.5938Z" fill="white"/>
	<path d="M18.3184 9C17.8939 9 17.8939 9.70291 18.3184 9.70877C21.6123 9.73571 24.3251 12.1748 24.3549 16.6488C24.3549 17.1209 25.0055 17.1151 25 16.643H24.9989C24.9636 11.8222 22.0016 9.02694 18.3184 9Z" fill="white"/>
	<path d="M22.3167 15.6679C22.3062 16.0977 22.9927 16.1183 22.9985 15.683C23.0557 13.2324 21.4251 11.2138 18.3609 11.001C17.9122 10.9708 17.8656 11.6242 18.3131 11.6544C20.9705 11.8413 22.3703 13.5218 22.3167 15.6679Z" fill="white"/>
	<path d="M22.1523 19.0363C21.5594 18.7043 20.9556 18.9109 20.706 19.2372L20.1839 19.8907C19.9186 20.2228 19.4229 20.1786 19.4229 20.1786C15.8054 19.2534 14.838 15.5919 14.838 15.5919C14.838 15.5919 14.7936 15.0962 15.1249 14.8304L15.7778 14.308C16.1043 14.0572 16.3107 13.4535 15.9783 12.8603C15.0901 11.3082 14.4936 10.773 14.1899 10.3621C13.8706 9.97547 13.3905 9.8884 12.8912 10.1496H12.8804C11.8422 10.737 10.7056 11.8364 11.0693 12.9683C11.6898 14.1617 12.83 17.966 16.4643 20.8404C18.1723 22.1998 20.8752 23.5929 22.0226 23.9144L22.0334 23.9307C23.1641 24.2952 24.2635 23.1529 24.8504 22.1185V22.1104C25.1109 21.61 25.0244 21.1364 24.644 20.8264C23.9694 20.1903 22.9516 19.4879 22.1523 19.0363Z" fill="white"/>
	<path d="M19.3527 13.7317C20.5863 13.7993 21.1844 14.4058 21.2486 15.6513C21.2717 16.1382 22.0226 16.1044 21.9995 15.6175C21.9173 13.9914 21.0163 13.0853 19.3938 13.0008C18.8996 12.973 18.8534 13.7039 19.3527 13.7317Z" fill="white"/>
</svg>
