<svg width="24" height="24" viewBox="0 0 24 24" fill="none" xmlns="http://www.w3.org/2000/svg">
	<path d="M2.21301 14.06C1.92542 12.7017 1.92542 11.2983 2.21301 9.94C3.32301 10.07 4.29301 9.703 4.60901 8.939C4.92601 8.174 4.50101 7.229 3.62301 6.536C4.38005 5.37232 5.37233 4.38004 6.53601 3.623C7.22801 4.5 8.17401 4.926 8.93901 4.609C9.70401 4.292 10.071 3.323 9.94001 2.213C11.2983 1.92541 12.7017 1.92541 14.06 2.213C13.93 3.323 14.297 4.293 15.061 4.609C15.826 4.926 16.771 4.501 17.464 3.623C18.6277 4.38004 19.62 5.37232 20.377 6.536C19.5 7.228 19.074 8.174 19.391 8.939C19.708 9.704 20.677 10.071 21.787 9.94C22.0746 11.2983 22.0746 12.7017 21.787 14.06C20.677 13.93 19.707 14.297 19.391 15.061C19.074 15.826 19.499 16.771 20.377 17.464C19.62 18.6277 18.6277 19.62 17.464 20.377C16.772 19.5 15.826 19.074 15.061 19.391C14.296 19.708 13.929 20.677 14.06 21.787C12.7017 22.0746 11.2983 22.0746 9.94001 21.787C10.07 20.677 9.70301 19.707 8.93901 19.391C8.17401 19.074 7.22901 19.499 6.53601 20.377C5.37233 19.62 4.38005 18.6277 3.62301 17.464C4.50001 16.772 4.92601 15.826 4.60901 15.061C4.29201 14.296 3.32301 13.929 2.21301 14.06ZM4.00001 12.21C5.10001 12.515 6.00701 13.212 6.45701 14.296C6.90601 15.381 6.75701 16.516 6.19501 17.508C6.29101 17.61 6.39001 17.709 6.49201 17.805C7.48501 17.243 8.61901 17.095 9.70401 17.543C10.788 17.993 11.485 18.9 11.79 20C11.93 20.004 12.07 20.004 12.21 20C12.515 18.9 13.212 17.993 14.296 17.543C15.381 17.094 16.516 17.243 17.508 17.805C17.61 17.709 17.709 17.61 17.805 17.508C17.243 16.515 17.095 15.381 17.543 14.296C17.993 13.212 18.9 12.515 20 12.21C20.004 12.07 20.004 11.93 20 11.79C18.9 11.485 17.993 10.788 17.543 9.704C17.094 8.619 17.243 7.484 17.805 6.492C17.7086 6.3904 17.6096 6.29136 17.508 6.195C16.515 6.757 15.381 6.905 14.296 6.457C13.212 6.007 12.515 5.1 12.21 4C12.07 3.99629 11.93 3.99629 11.79 4C11.485 5.1 10.788 6.007 9.70401 6.457C8.61901 6.906 7.48401 6.757 6.49201 6.195C6.39001 6.291 6.29101 6.39 6.19501 6.492C6.75701 7.485 6.90501 8.619 6.45701 9.704C6.00701 10.788 5.10001 11.485 4.00001 11.79C3.99601 11.93 3.99601 12.07 4.00001 12.21ZM12 15C11.2044 15 10.4413 14.6839 9.87869 14.1213C9.31608 13.5587 9.00001 12.7956 9.00001 12C9.00001 11.2043 9.31608 10.4413 9.87869 9.87868C10.4413 9.31607 11.2044 9 12 9C12.7957 9 13.5587 9.31607 14.1213 9.87868C14.6839 10.4413 15 11.2043 15 12C15 12.7956 14.6839 13.5587 14.1213 14.1213C13.5587 14.6839 12.7957 15 12 15ZM12 13C12.2652 13 12.5196 12.8946 12.7071 12.7071C12.8946 12.5196 13 12.2652 13 12C13 11.7348 12.8946 11.4804 12.7071 11.2929C12.5196 11.1054 12.2652 11 12 11C11.7348 11 11.4804 11.1054 11.2929 11.2929C11.1054 11.4804 11 11.7348 11 12C11 12.2652 11.1054 12.5196 11.2929 12.7071C11.4804 12.8946 11.7348 13 12 13Z" fill="#9F9FAD"/>
</svg>
