<svg width="37" height="36" viewBox="0 0 37 36" fill="none" xmlns="http://www.w3.org/2000/svg">
	<path d="M31.5 0H4.5C2.0175 0 0 2.0175 0 4.5V31.5C0 33.981 2.0175 36 4.5 36H31.5C33.981 36 36 33.981 36 31.5V4.5C36 2.0175 33.981 0 31.5 0Z" fill="#7091B3"/>
	<path d="M28.0648 19.1749C27.5959 18.6149 27.7301 18.3657 28.0648 17.8651C28.0708 17.8594 31.9413 12.8011 32.34 11.0857L32.3424 11.0846C32.5406 10.4594 32.3424 10 31.3842 10H28.2134C27.4062 10 27.034 10.3943 26.8347 10.8354C26.8347 10.8354 25.2203 14.4903 22.9364 16.8594C22.1993 17.544 21.8586 17.7634 21.4562 17.7634C21.258 17.7634 20.9499 17.544 20.9499 16.9189V11.0846C20.9499 10.3349 20.7239 10 20.0557 10H15.0699C14.5636 10 14.2627 10.3497 14.2627 10.6754C14.2627 11.3863 15.4046 11.5497 15.5231 13.5497V17.8891C15.5231 18.84 15.3406 19.0149 14.9358 19.0149C13.8579 19.0149 11.2418 15.3451 9.69145 11.1451C9.37848 10.3303 9.07276 10.0011 8.25952 10.0011H5.08754C4.18246 10.0011 4 10.3954 4 10.8366C4 11.616 5.07787 15.4914 9.01234 20.6114C11.6345 24.1063 15.3273 26 18.6866 26C20.7058 26 20.9523 25.5794 20.9523 24.856C20.9523 21.5166 20.7698 21.2011 21.7812 21.2011C22.2501 21.2011 23.0573 21.4206 24.9424 23.1063C27.0969 25.1051 27.4509 26 28.6569 26H31.8277C32.7315 26 33.1895 25.5794 32.9261 24.7497C32.3231 23.0046 28.2485 19.4149 28.0648 19.1749Z" fill="white"/>
</svg>
