<svg width="37" height="36" viewBox="0 0 37 36" fill="none" xmlns="http://www.w3.org/2000/svg">
	<path d="M32.375 0H4.625C2.07354 0 0 2.0175 0 4.5V31.5C0 33.981 2.07354 36 4.625 36H32.375C34.9249 36 37 33.981 37 31.5V4.5C37 2.0175 34.9249 0 32.375 0Z" fill="#039BE5"/>
	<path d="M18.5 36C28.7173 36 37 27.9411 37 18C37 8.05887 28.7173 0 18.5 0C8.28273 0 0 8.05887 0 18C0 27.9411 8.28273 36 18.5 36Z" fill="#039BE5"/>
	<path d="M8.4653 17.61L26.3024 10.9185C27.1303 10.6275 27.8533 11.115 27.585 12.333L27.5866 12.3315L24.5495 26.253C24.3244 27.24 23.7216 27.48 22.8783 27.015L18.2533 23.6985L16.0225 25.7895C15.7759 26.0295 15.5678 26.232 15.0898 26.232L15.4182 21.6525L23.9899 14.118C24.363 13.7985 23.9066 13.6185 23.4148 13.9365L12.822 20.4255L8.25563 19.0395C7.26434 18.7335 7.24276 18.075 8.4653 17.61V17.61Z" fill="white"/>
</svg>
