<svg width="35" height="35" viewBox="0 0 35 35" fill="none" xmlns="http://www.w3.org/2000/svg">
<g clip-path="url(#clip0)">
<path d="M17.5009 34.9962C7.83186 34.9962 0.0057373 27.1714 0.0057373 17.5009C0.0057373 7.83192 7.83049 0.0057373 17.5009 0.0057373C27.17 0.0057373 34.9961 7.83049 34.9961 17.5009C34.9962 27.1699 27.1714 34.9962 17.5009 34.9962Z" fill="#86BFF2"/>
<path d="M5.00978 6.81235C4.58447 6.37878 4.58447 5.68457 5.00978 5.251C11.8771 -1.75073 23.1238 -1.74978 29.9902 5.251C30.4155 5.68457 30.4155 6.37878 29.9902 6.81235C23.1229 13.8142 11.8762 13.8131 5.00978 6.81235Z" fill="#D7EDFF"/>
<path d="M5.00978 29.749C4.58447 29.3154 4.58447 28.6212 5.00978 28.1876C11.8771 21.1858 23.1238 21.1868 29.9902 28.1876C30.4155 28.6212 30.4155 29.3154 29.9902 29.749C23.1227 36.7508 11.8763 36.7497 5.00978 29.749Z" fill="#D7EDFF"/>
<path d="M17.5 34.9952C8.38034 34.9952 4.22447 16.2131 10.1677 5.38108C12.0699 1.91416 14.6739 0.00482178 17.5 0.00482178C26.6197 0.00482178 30.7755 18.7869 24.8323 29.6189C22.9302 33.0858 20.3262 34.9952 17.5 34.9952Z" fill="#B9DCFF"/>
<path d="M8.47363 9.55823C13.9879 12.8937 21.009 12.8955 26.5263 9.55823C22.8448 -3.15866 12.1674 -3.20094 8.47363 9.55823Z" fill="#86BFF2"/>
<path d="M8.47363 25.4418C12.1587 38.1708 22.8366 38.1871 26.5263 25.4418C21.0121 22.1064 13.9909 22.1045 8.47363 25.4418Z" fill="#86BFF2"/>
<path d="M29.8719 5.13005C23.0351 -1.70695 11.968 -1.70804 5.13001 5.13005C-1.70705 11.967 -1.70807 23.034 5.13001 29.872C11.9669 36.709 23.034 36.7101 29.8719 29.872C36.709 23.035 36.71 11.968 29.8719 5.13005ZM29.1408 27.378C28.3233 26.6471 27.449 26.0002 26.5273 25.4427C27.1365 23.3385 27.4974 21.0229 27.5827 18.6159H32.7263C32.4937 21.8603 31.2471 24.9039 29.1408 27.378ZM2.27567 18.6159H7.4193C7.5046 21.0229 7.8655 23.3385 8.47467 25.4427C7.55303 26.0002 6.67865 26.6471 5.86123 27.378C3.75485 24.9039 2.5083 21.8603 2.27567 18.6159ZM5.86123 7.62396C6.67865 8.35491 7.55303 9.00178 8.47467 9.55925C7.8655 11.6635 7.5046 13.9791 7.4193 16.3861H2.27567C2.5083 13.1417 3.75485 10.0981 5.86123 7.62396ZM16.3861 9.78963C14.5678 9.65958 12.8146 9.21174 11.1893 8.47293C12.1345 6.03878 13.8772 3.11929 16.3861 2.39578V9.78963ZM16.3861 12.0236V16.3861H9.64998C9.72716 14.35 10.0157 12.3947 10.4955 10.6057C12.3425 11.4132 14.329 11.8954 16.3861 12.0236ZM16.3861 18.6159V22.9784C14.329 23.1066 12.3425 23.5888 10.4955 24.3963C10.0157 22.6073 9.72716 20.652 9.64998 18.6159H16.3861ZM16.3861 25.2124V32.6061C13.8773 31.8826 12.1347 28.9635 11.1893 26.5291C12.8146 25.7903 14.5679 25.3424 16.3861 25.2124ZM18.6159 25.2124C20.4342 25.3424 22.1874 25.7903 23.8127 26.5291C22.8674 28.9633 21.1248 31.8826 18.6159 32.6061V25.2124ZM18.6159 22.9784V18.6159H25.352C25.2748 20.652 24.9863 22.6073 24.5065 24.3963C22.6594 23.5888 20.673 23.1066 18.6159 22.9784ZM18.6159 16.3861V12.0236C20.673 11.8954 22.6595 11.4132 24.5065 10.6057C24.9863 12.3947 25.2748 14.35 25.352 16.3861H18.6159ZM18.6159 9.78963V2.39585C21.1248 3.11935 22.8674 6.03885 23.8127 8.473C22.1874 9.21174 20.4341 9.65958 18.6159 9.78963ZM23.6237 3.50894C25.0508 4.13389 26.3822 4.98129 27.5758 6.0327C27.0077 6.53362 26.4082 6.98781 25.7822 7.39399C25.2263 6.01761 24.5161 4.68002 23.6237 3.50894ZM9.21976 7.39399C8.59379 6.98781 7.99439 6.53362 7.4262 6.0327C8.61974 4.98129 9.95119 4.13389 11.3783 3.50894C10.4858 4.68015 9.77559 6.01774 9.21976 7.39399ZM9.21976 27.608C9.77559 28.9843 10.4858 30.322 11.3783 31.4931C9.95119 30.8681 8.61974 30.0207 7.4262 28.9693C7.99432 28.4684 8.59379 28.0142 9.21976 27.608ZM25.7822 27.608C26.4082 28.0142 27.0077 28.4684 27.5758 28.9692C26.3822 30.0206 25.0508 30.868 23.6237 31.493C24.5161 30.3221 25.2263 28.9844 25.7822 27.608ZM27.5827 16.3861C27.4974 13.9791 27.1365 11.6634 26.5273 9.55925C27.449 9.00178 28.3233 8.35491 29.1408 7.62396C31.2471 10.0981 32.4937 13.1417 32.7263 16.3861H27.5827Z" fill="#2E58FF"/>
</g>
<defs>
<clipPath id="clip0">
<rect width="35" height="35" fill="white"/>
</clipPath>
</defs>
</svg>
