<svg width="36" height="36" viewBox="0 0 36 36" fill="none" xmlns="http://www.w3.org/2000/svg">
<circle cx="18" cy="18" r="17.5" stroke="white"/>
<path d="M25.0859 18.8811C24.714 18.4611 24.8204 18.2743 25.0859 17.8989C25.0907 17.8946 28.1603 14.1009 28.4766 12.8143L28.4785 12.8134C28.6357 12.3446 28.4785 12 27.7185 12H25.2037C24.5636 12 24.2684 12.2957 24.1103 12.6266C24.1103 12.6266 22.8299 15.3677 21.0186 17.1446C20.434 17.658 20.1637 17.8226 19.8446 17.8226C19.6874 17.8226 19.443 17.658 19.443 17.1891V12.8134C19.443 12.2511 19.2638 12 18.7338 12H14.7796C14.378 12 14.1394 12.2623 14.1394 12.5066C14.1394 13.0397 15.0451 13.1623 15.139 14.6623V17.9169C15.139 18.63 14.9943 18.7611 14.6732 18.7611C13.8184 18.7611 11.7435 16.0089 10.5139 12.8589C10.2657 12.2477 10.0232 12.0009 9.37824 12.0009H6.86253C6.14471 12.0009 6 12.2966 6 12.6274C6 13.212 6.85486 16.1186 9.9753 19.9586C12.055 22.5797 14.9837 24 17.648 24C19.2494 24 19.4449 23.6846 19.4449 23.142C19.4449 20.6374 19.3002 20.4009 20.1024 20.4009C20.4742 20.4009 21.1144 20.5654 22.6094 21.8297C24.3182 23.3289 24.599 24 25.5555 24H28.0702C28.7871 24 29.1503 23.6846 28.9414 23.0623C28.4632 21.7534 25.2315 19.0611 25.0859 18.8811Z" fill="white"/>
</svg>
